<?xml version="1.0" encoding="UTF-8" standalone="no"?>
<!-- Created with Inkscape (http://www.inkscape.org/) -->

<svg
   width="700"
   height="600"
   viewBox="0 0 185.20834 158.75036"
   version="1.1"
   id="svg1"
   xmlns="http://www.w3.org/2000/svg"
   xmlns:svg="http://www.w3.org/2000/svg">
  <defs
     id="defs1" />
  <g
     id="layer1"
     transform="translate(-4.9500889,-43.89052)">
    <path
       style="fill:#000000;stroke-width:0.252109"
       id="path11"
       d="m 159.29336,126.30725 c -0.90928,0.56666 -1.86736,1.1095 -2.72784,1.7 -8.1671,5.60461 -15.05606,11.7943 -21.79486,17.95757 -6.26812,5.73278 -12.618,11.94657 -18.64313,17.76833 -6.38962,6.17805 -12.64472,12.40027 -19.035506,18.57792 -2.51971,2.43569 -5.066137,4.85526 -7.772242,7.22581 -2.499347,1.95252 -2.048879,2.01126 -5.444721,-0.90107 -0.128941,-0.11061 0.115083,-0.25724 0.150126,-0.3882 0.153514,-0.57372 0.276846,-1.14988 0.415268,-1.72482 0.151469,-1.07176 0.330609,-2.14238 0.454417,-3.21528 0.869867,-7.53751 -0.02775,-1.17459 0.817841,-9.35756 0.52511,-5.08161 1.35528,-10.15465 2.103603,-15.22681 0.432648,-2.99031 0.923828,-5.98318 1.96176,-8.92921 0.601102,-1.70619 1.423778,-3.38912 2.172079,-5.07591 0.328828,-0.89501 0.965987,-1.76618 1.141169,-2.68078 0.0296,-0.15424 -0.1878,-0.58156 -0.006,-0.46541 3.60911,2.30311 3.41958,2.11651 1.1614,1.79811 -0.69867,-0.001 -1.397539,-0.0136 -2.096035,-0.004 -1.013601,0.0134 -2.025957,0.0482 -3.038937,0.0724 -1.369741,0.0275 -2.738953,0.0658 -4.109238,0.0826 -4.965113,0.0609 -9.897897,-0.0192 -14.856235,-0.15462 -6.564887,-0.21292 -13.060653,-0.81348 -19.582525,-1.25827 -2.617457,-0.15706 -5.412392,-0.0507 -5.418048,-2.65563 -0.0013,-0.60307 1.916404,-0.53189 2.890481,-0.77843 1.852311,-0.46882 9.648614,-2.32607 10.915672,-2.6292 2.467554,-0.58697 4.933241,-1.17645 7.402664,-1.76089 4.519193,-1.06958 12.715443,-3.00215 17.169495,-4.00713 9.557306,-2.15646 19.203612,-4.18198 28.858222,-6.19371 12.64641,-2.68747 25.51857,-5.02126 38.17102,-7.69719 5.96865,-1.26697 11.78425,-2.74947 17.49541,-4.34739 0.72543,-0.20901 1.45086,-0.41802 2.17629,-0.62703 0,0 2.83427,2.1455 2.83427,2.1455 v 0 c -0.73082,0.20687 -1.46165,0.41375 -2.19247,0.62062 -5.7718,1.57544 -11.64575,3.02733 -17.68659,4.2463 -12.79564,2.58266 -25.91752,4.61883 -38.63189,7.33901 -3.2103,0.66509 -6.42955,1.31656 -9.6309,1.99526 -14.696789,3.11583 -29.202537,6.51081 -43.498528,10.174 -3.296013,0.86369 -7.303756,1.87811 -10.584558,2.85315 -0.805873,0.2395 -1.507792,0.96204 -2.358553,0.77868 -1.453335,-0.31325 -2.28103,-1.22035 -3.121656,-1.95983 -0.469815,-0.4133 3.649266,0.97308 2.574287,0.23646 6.575079,0.54644 13.133243,1.20457 19.77157,1.4584 4.451319,0.13301 5.474107,0.20022 9.958828,0.18524 3.953772,-0.0132 7.862664,-0.19298 11.800755,-0.35391 0.702003,-0.0287 1.405024,-0.0486 2.10753,-0.0729 3.105899,0.10998 1.814369,-0.133 4.885129,2.57082 0.15201,0.13385 -0.0365,0.31812 -0.0871,0.47458 -0.28736,0.8896 -0.88532,1.74003 -1.27709,2.61393 -0.80565,1.64877 -1.6534,3.29532 -2.29798,4.96742 -1.105144,2.86682 -1.749207,5.7809 -2.282294,8.69691 -0.599391,3.43298 -1.118199,6.20522 -1.569096,9.67935 -0.794821,6.12399 -0.944266,12.26019 -1.365186,18.39385 -0.0635,0.62408 -0.136169,1.24788 -0.190493,1.87224 -0.0102,0.11778 0.150004,0.43383 -0.0032,0.35375 -1.175562,-0.61458 -2.200125,-1.31833 -3.196823,-2.02668 -0.06283,-0.0446 0.212347,-0.003 0.296398,-0.0346 0.704322,-0.26418 1.379411,-0.78315 1.876058,-1.10806 2.942583,-2.21538 5.65947,-4.50352 8.317586,-6.83223 6.797356,-5.95499 13.300176,-12.01553 19.751726,-18.0913 23.41694,-22.3032 -5.62982,5.38173 18.61503,-17.79171 7.33564,-7.01146 14.44276,-14.16335 23.2008,-20.6542 z" />
    <path
       style="fill:#000000;stroke-width:0.252109"
       id="path12"
       d="m 155.33107,124.32544 c 0.12935,-0.0567 0.26774,-0.10731 0.38807,-0.17001 0.68232,-0.35551 1.2841,-0.74714 1.8683,-1.15517 1.64283,-1.14743 3.06354,-2.37849 4.49952,-3.60906 2.90558,-2.54265 5.77935,-5.09676 8.53991,-7.6906 0,0 2.72457,1.84714 2.72457,1.84714 v 0 c -2.97551,2.49534 -5.92163,5.00308 -8.73722,7.55721 -1.39721,1.27819 -2.78882,2.55814 -4.23222,3.81994 -0.38177,0.33374 -1.1626,1.00971 -1.62374,1.37806 -0.11189,0.0894 -0.23464,0.17423 -0.35195,0.26134 z" />
    <path
       style="fill:#000000;stroke-width:0.264583"
       id="path15"
       d="m 96.876324,142.73395 c 1.02524,-0.58357 1.0315,-0.61307 2.53741,-1.22345 3.897276,-1.57965 8.303186,-3.08921 12.169426,-4.48998 19.86721,-7.19803 7.082,-2.68479 28.84615,-10.21052 5.08346,-1.72502 10.16691,-3.45004 15.25036,-5.17506 0,0 -0.40966,-0.27744 -0.40966,-0.27744 v 0 c -5.04715,1.74948 -10.09429,3.49896 -15.14144,5.24843 -5.33725,1.70982 -10.64927,3.50048 -16.01175,5.12947 -4.24507,1.28955 -17.11322,4.86187 -22.747,6.43941 -1.627566,0.45575 -3.261066,0.89106 -4.881556,1.37139 -1.82164,0.53995 -1.69838,0.51389 -2.94357,1.05454 z" />
    <path
       style="fill:#2ad4ff;stroke-width:0.264583"
       id="path16"
       d="m 81.31866,154.61639 c -0.280339,0.20908 -0.547137,0.43766 -0.841021,0.62723 -2.854433,1.84129 -6.046467,3.12717 -9.258379,4.19345 -1.70099,0.56469 -3.420112,1.07943 -5.156763,1.52246 -1.807554,0.46112 -3.645829,0.79213 -5.468742,1.18819 -1.755817,0.22224 -3.50134,0.55211 -5.267449,0.66671 -4.710142,0.30562 -9.576136,-0.193 -13.762056,-2.56135 -0.713629,-0.40377 -1.24197,-1.07636 -1.795896,-1.68089 -1.514732,-1.65311 -2.9356,-3.38984 -4.4034,-5.08476 -3.148274,-5.66228 -6.513573,-10.74864 -7.686172,-17.33708 -2.439013,-13.704 1.230333,-28.31071 8.371038,-40.075642 2.475749,-4.07901 5.850252,-7.53957 8.77538,-11.309355 3.605173,-2.960442 6.888138,-6.363949 10.815513,-8.881327 8.329363,-5.338972 16.801033,-8.008297 26.573326,-9.247402 9.992339,-1.267005 20.135841,-0.483793 30.036171,1.003633 4.60435,0.691759 9.12654,1.849438 13.68981,2.774154 8.73701,2.49365 12.72814,3.27102 20.7657,6.810219 2.34625,1.033129 4.70925,2.097087 6.8262,3.543043 0.91257,0.623324 1.47657,1.652008 2.10773,2.559182 2.6298,3.779838 2.09018,3.058599 3.10057,7.125647 -0.006,0.974551 -0.0122,1.949101 -0.0183,2.923652 0,0 2.98392,1.5172 2.98392,1.5172 v 0 c -0.023,-1.018987 -0.046,-2.037977 -0.0689,-3.056967 -0.32663,-1.194401 -0.46027,-2.459239 -0.97987,-3.583204 -2.01895,-4.367327 -4.71913,-6.241519 -8.97531,-8.967793 -2.03321,-1.302367 -4.2543,-2.301206 -6.47993,-3.237526 -7.63562,-3.212293 -11.77174,-3.990986 -20.04168,-6.223717 -4.49389,-0.869411 -8.95185,-1.951236 -13.48168,-2.608234 -14.603239,-2.118029 -30.091225,-2.864257 -44.289475,2.049399 -11.857596,4.103619 -13.865453,7.207533 -23.315549,15.052347 -2.919881,3.780266 -6.276247,7.260495 -8.75964,11.340798 -4.945922,8.126323 -8.146946,17.441583 -9.247264,26.889613 -0.495801,4.25726 -0.568705,8.61338 0.0251,12.85808 0.875286,6.25686 4.120321,11.61775 6.919689,17.08262 1.371598,1.67894 2.488711,3.60294 4.11479,5.0368 2.894642,2.55247 7.213071,5.22215 11.133987,6.29656 4.797184,1.31452 9.802759,0.70632 14.612408,-0.0917 1.837306,-0.39344 3.686233,-0.73607 5.511916,-1.18033 1.778193,-0.43271 3.542263,-0.92458 5.295437,-1.44953 3.754361,-1.12417 7.545398,-2.40606 10.942145,-4.39489 z" />
    <path
       style="fill:#ff5555;stroke-width:0.264583"
       id="path17"
       d="m 81.02969,149.86634 c -4.679688,1.51682 -9.527297,2.51012 -14.394508,3.20012 -1.354286,0.192 -2.716149,0.32607 -4.074226,0.48911 -3.532129,0.40526 -7.160072,0.36252 -10.536539,-0.90553 -0.109884,-0.0413 0.07859,-0.26042 0.0053,-0.35209 -5.462773,-6.8308 -0.548542,0.556 -5.711769,-7.80741 -0.814189,-1.86741 -1.751796,-3.68574 -2.44257,-5.60224 -1.725332,-4.7868 -2.890232,-9.75506 -3.207901,-14.85113 -0.433827,-6.95943 0.204833,-13.61367 1.773785,-20.41327 0.824706,-3.57414 2.135685,-7.018359 3.203525,-10.527535 1.550794,-3.226441 2.752198,-6.645482 4.65238,-9.679321 5.793023,-9.249169 14.569326,-16.020576 24.445928,-20.427831 7.527708,-3.359102 11.253983,-3.721904 19.139218,-5.377603 8.349747,-1.121376 16.913967,-2.017168 25.225327,-0.115866 2.99898,0.68604 3.69408,1.096086 6.38021,2.215792 0,0 -2.78114,-2.188591 -2.78114,-2.188591 v 0 c -2.62714,-1.027588 -3.31562,-1.412872 -6.23757,-2.011404 -8.19848,-1.679377 -16.486507,-0.556983 -24.662031,0.658772 -7.765897,1.72438 -11.617873,2.178474 -19.033773,5.533912 -9.870686,4.466145 -18.718408,11.27784 -24.511831,20.558415 -1.902171,3.047119 -3.08965,6.485896 -4.634476,9.728843 -1.084323,3.512013 -2.392574,6.962566 -3.25297,10.536037 -1.595495,6.62656 -2.428901,13.47763 -2.161579,20.3008 0.200393,5.11483 1.246259,9.95904 2.880937,14.78039 0.647141,1.90869 1.537708,3.726 2.306563,5.589 1.336863,2.28079 3.223919,6.0626 5.426284,7.8423 1.827802,1.47701 3.86997,2.69862 5.978385,3.73642 0.964895,0.47494 2.074537,0.58922 3.137791,0.75073 3.218238,0.48884 4.099497,0.22723 7.364659,-0.0262 1.364424,-0.16434 2.732458,-0.30107 4.09327,-0.49302 5.002708,-0.70569 9.964936,-1.7133 14.865678,-2.93477 z" />
    <path
       style="fill:#ffffff;stroke-width:1.24726"
       d="m 386.55376,695.34714 c 1.64877,-27.58394 3.31556,-43.20775 7.0522,-66.10475 5.13433,-31.4615 8.66613,-44.08111 17.40707,-62.19768 4.09338,-8.48399 7.44251,-16.11442 7.44251,-16.9565 0,-0.84209 -1.12597,-2.55006 -2.50216,-3.7955 -3.03236,-2.74424 -2.4205,-3.86983 0.95702,-1.76054 2.04072,1.27445 3.94668,0.90076 11.65859,-2.28583 16.64052,-6.87589 99.16596,-36.45352 157.48602,-56.44395 31.46934,-10.78678 56.60546,-19.99028 55.85801,-20.45222 -0.74743,-0.46195 -26.49508,7.55162 -57.217,17.80792 -31.30079,10.44956 -78.61417,25.0524 -107.61928,33.21572 -68.29292,19.22065 -68.68415,19.34128 -69.48368,21.42484 -0.44161,1.1508 -2.09152,1.67473 -4.58015,1.45441 -2.13944,-0.18941 -18.48282,0.0905 -36.31863,0.62206 -36.67049,1.09284 -106.64069,-1.67247 -106.64069,-4.21458 0,-1.02764 91.83455,-23.98952 134.08039,-33.52483 60.99408,-13.76698 111.74855,-24.14045 171.12072,-34.97457 49.79163,-9.08587 86.61693,-16.4773 102.61102,-20.59566 6.49399,-1.67216 11.96238,-2.88517 12.15196,-2.69558 0.74871,0.7487 -26.84915,23.67412 -32.96647,27.38509 -3.58201,2.17297 -6.55428,4.51212 -6.60504,5.19812 -0.0508,0.68599 -3.76053,4.01033 -8.24391,7.38741 -14.77767,11.1312 -31.57284,26.49823 -93.38618,85.4453 -90.55922,86.35999 -116.34581,110.04197 -150.77177,138.46624 -2.28318,1.88513 -2.32426,1.54318 -1.49055,-12.40492 z"
       id="path18"
       transform="matrix(0.26458333,0,0,0.26458333,-14.190175,-1.6500203)" />
  </g>
</svg>
